<?xml version="1.0" encoding="UTF-8"?>
<svg width="167.68" height="35.029" version="1.1" viewBox="0 0 167.67854 35.029001" 
xmlns="http://www.w3.org/2000/svg"><title>made-with-php</title><g><path d="m25.083 
0h142.6v35h-142.6z" fill="#c1282d" stroke-width=".8314"/><path d="m0 
0.029h112.38v35h-112.38z" fill="#ef4041"/></g><g><path d="m81.73 
13.465v1.1992h2.6367v7.3359h1.4727v-7.3359h2.6602v-1.1992zm-67.863 
0.0039v8.5313h1.4785v-2.8125l-0.14648-3.7559 2.5117 6.5684h1.0605l2.5195-6.5742-0.14648 
3.7617v2.8125h1.4766v-8.5312h-1.916l-2.4551 6.5391-2.4609-6.5391zm15.713 0l-3.2227 
8.5313h1.543l0.69336-1.9863h3.3008l0.69727 1.9863h1.5469l-3.2285-8.5312zm8.1641 
0v8.5313h2.4551a4.135 4.135 0 0 0 2.0488 -0.5 3.4 3.4 0 0 0 1.377 -1.4199 4.519 4.519 0 0 0 
0.48242 -2.1328v-0.42774a4.538 4.538 0 0 0 -0.47852 -2.1211 3.436 3.436 0 0 0 -1.3574 
-1.4297 3.952 3.952 0 0 0 -2.0059 -0.5zm10.48 
0v8.5313h5.5859v-1.1992h-4.0996v-2.6094h3.5l-0.0039-1.1719h-3.5v-2.3496h4.0547v-1.2012zm14.467 
0l1.9688 8.5313h1.4258l1.6562-6.2285 1.623 6.2285h1.418l1.9707-8.5312h-1.4707l-1.3125 
6.4219-1.6133-6.4219h-1.2422l-1.6289 6.4102-1.3242-6.4102zm13.873 
0v8.5313h1.4766v-8.5312zm15.693 
0v8.5313h1.4805v-3.7852h3.8164v3.7852h1.4746v-8.5312h-1.4766v3.5508h-3.8145v-3.5508zm-51.951 
1.1875a2.142 2.142 0 0 1 1.7129 0.73242 3.251 3.251 0 0 1 0.59961 2.1172v0.47461a3.165 3.165 
0 0 1 -0.63477 2.0898 2.229 2.229 0 0 1 -1.791 0.73047h-0.9668v-6.1367l1.041-0.0059a2.142 
2.142 0 0 1 0.03906 -2e-3zm-10.064 0.61914 1.2363 3.5391h-2.4727z" fill="#fff"/></g><g 
display="none"><path d="m174.45 13.438a5.174 5.174 0 0 0 -2.498 0.5625 4.2 4.2 0 0 0 -1.6406 
1.5547 4.244 4.244 0 0 0 -0.59375 2.2246 4.327 4.327 0 0 0 0.59375 2.25 4.214 4.214 0 0 0 
1.6387 1.5723 5.123 5.123 0 0 0 4.6992 0 4.2 4.2 0 0 0 1.6445 -1.5723 4.323 4.323 0 0 0 
0.59375 -2.25 4.239 4.239 0 0 0 -0.59375 -2.2246 4.188 4.188 0 0 0 -1.6426 -1.5547 5.174 
5.174 0 0 1 -2e-3 0 5.174 5.174 0 0 0 -2.1992 -0.5625zm-44.174 0.14648a3.721 3.721 0 0 0 
-0.37109 0.0039h-3.8223v8.4121h2.5v-2.2559l1.3203-0.01367a3.576 3.576 0 0 0 2.5273 -0.82812 
3.012 3.012 0 0 0 0.89258 -2.3262 2.773 2.773 0 0 0 -0.89258 -2.209 3.721 3.721 0 0 0 
-2.1543 -0.7832zm5.8398 0 3.084 5.8008v2.6152h2.5v-2.6641l3.0234-5.748-2.4844-0.0039-1.7871 
3.4316-1.8359-3.4316zm11.236 
0.0039v1.9922h2.4355v6.4199h2.5078v-6.4199h2.4473v-1.9922zm10.811 
0v8.4121h2.5v-3.1328h2.9883v3.1328h2.5v-8.4121h-2.5v3.3477h-2.9883v-3.3477zm24.301 
0v8.4121h2.293v-4.6797l3.5625 4.6797h2.125v-8.4121h-2.2812v4.6914l-3.5625-4.6914zm-52.582 
1.918a1.207 1.207 0 0 1 0.77149 0.29688 1.12 1.12 0 0 1 0.30664 0.8457 1.157 1.157 0 0 1 
-0.30664 0.86328 1.192 1.192 0 0 1 -0.86914 0.29688h-1.2012v-2.3008h1.2012a1.207 1.207 0 0 1 
0.0976 -2e-3zm44.455 0.0059a1.8 1.8 0 0 1 1.0098 0.30078 2.094 2.094 0 0 1 0.71875 0.82227 
2.533 2.533 0 0 1 0.26367 1.1582 2.559 2.559 0 0 1 -0.26367 1.1699 2.126 2.126 0 0 1 
-0.72461 0.82617 1.778 1.778 0 0 1 -1 0.30664 1.855 1.855 0 0 1 -1.0274 -0.30664 2.215 2.215 
0 0 1 -0.75586 -0.83398 2.434 2.434 0 0 1 -0.28125 -1.1621 2.4 2.4 0 0 1 0.28125 -1.1582 
2.178 2.178 0 0 1 0.75586 -0.82227v-0.0039a1.882 1.882 0 0 1 1.0234 -0.29688z" 
display="inline" fill="#fff"/></g><g display="none"><text x="125.21819" y="22.010942" 
fill="#ffffff" font-family="Roboto" font-size="11.843px" font-weight="500" 
letter-spacing="0px" stroke-width=".98688" word-spacing="0px" 
style="font-feature-settings:normal;font-variant-caps:normal;font-variant-ligatures:normal;font-variant-numeric:normal;line-height:1.25" 
xml:space="preserve"><tspan x="125.21819" y="22.010942" fill="#ffffff" font-family="Roboto" 
font-size="11.843px" font-weight="500" stroke-width=".98688" 
style="font-feature-settings:normal;font-variant-caps:normal;font-variant-ligatures:normal;font-variant-numeric:normal">PHP</tspan></text></g><g 
display="none"><path d="m218.25 16.391c-0.2-1.36-0.78-2.22-1.66-2.45a3.13 3.13 0 0 0 -0.92 
0h-0.68v1a9.331 9.331 0 0 1 0 1.09 2.33 2.33 0 0 1 -0.34 0.95 1.77 1.77 0 0 1 -1.23 0.78 15 
15 0 0 1 -2.23 0h-2.06a1.79 1.79 0 0 0 -1.69 1.53q-0.05 1 0 2v1.86a1.46 1.46 0 0 0 0.44 0.87 
3.22 3.22 0 0 0 1.8 0.77 8.38 8.38 0 0 0 1 0.1h0.93a5.83 5.83 0 0 0 1.83 -0.34 1.53 1.53 0 0 
0 1.08 -1.1v-1.84h-3.57v-0.59h2.62a20.49 20.49 0 0 0 2.84 0 2 2 0 0 0 0.8 -0.36 3 3 0 0 0 1 
-2.08 9.9 9.9 0 0 0 0 -1.06v-1zm-5.91 6.63a0.58 0.58 0 0 1 0.06 -0.26 0.66 0.66 0 0 1 0.43 
-0.34 0.81 0.81 0 0 1 0.31 0 0.65 0.65 0 0 1 0.46 0.46 0.53 0.53 0 0 1 0 0.16 0.55 0.55 0 0 
1 -0.06 0.27 0.65 0.65 0 0 1 -0.45 0.36 0.85 0.85 0 0 1 -0.26 0 0.65 0.65 0 0 1 -0.49 -0.48 
0.52 0.52 0 0 1 0 -0.17z" fill="#f3f3f3"/><path d="m214.51 11.851a1.62 1.62 0 0 0 -0.82 -1.1 
5.48 5.48 0 0 0 -2.79 -0.57 5.4 5.4 0 0 0 -2.88 0.6 1.3 1.3 0 0 0 -0.6 0.82 7.32 7.32 0 0 0 
0 1v0.85h3.576v0.57h-5.31a2 2 0 0 0 -1.31 0.73 3.74 3.74 0 0 0 -0.73 2.12 9 9 0 0 0 0 1.44 
4.8 4.8 0 0 0 0.43 1.69 2.1 2.1 0 0 0 1.05 1.02 1.92 1.92 0 0 0 0.35 0.09h1.4v-1a9.179 9.179 
0 0 1 0 -1.09 2.13 2.13 0 0 1 0.54 -1.2 1.83 1.83 0 0 1 1.13 -0.54h2.11a13.81 13.81 0 0 0 
2.21 0 1.93 1.93 0 0 0 1.31 -0.79 2.08 2.08 0 0 0 0.18 -0.36 2.23 2.23 0 0 0 0.11 
-0.52v-1.88c0.054-1.631 0.054-1.82 0.044-1.88zm-5 0.37a0.66 0.66 0 0 1 -0.44 0.36 0.87 0.87 
0 0 1 -0.24 0 0.64 0.64 0 0 1 -0.52 -0.46 0.79 0.79 0 0 1 0 -0.35 0.64 0.64 0 0 1 1.24 0 
0.68 0.68 0 0 1 -0.03 0.45z" fill="#fff"/></g><g><g transform="matrix(.29809 0 0 .29809 
126.08 10.585)" fill="#fff"><path d="m7.579 10.123h14.204c4.169 0.035 7.19 1.237 9.063 
3.604s2.491 5.6 1.855 9.699c-0.247 1.873-0.795 3.71-1.643 5.512-0.813 1.802-1.943 
3.427-3.392 4.876-1.767 1.837-3.657 3.003-5.671 3.498s-4.099 0.742-6.254 0.742h-6.36l-2.014 
10.07h-7.367l7.579-38.001m6.201 6.042-3.18 15.9c0.212 0.035 0.424 0.053 0.636 
0.053h0.742c3.392 0.035 6.219-0.3 8.48-1.007 2.261-0.742 3.781-3.321 4.558-7.738 0.636-3.71 
0-5.848-1.908-6.413-1.873-0.565-4.222-0.83-7.049-0.795-0.424 0.035-0.83 0.053-1.219 
0.053h-1.113l0.053-0.053"/><path d="m41.093 0h7.314l-2.067 10.123h6.572c3.604 0.071 6.289 
0.813 8.056 2.226 1.802 1.413 2.332 4.099 1.59 8.056l-3.551 
17.649h-7.42l3.392-16.854c0.353-1.767 
0.247-3.021-0.318-3.763s-1.784-1.113-3.657-1.113l-5.883-0.053-4.346 
21.783h-7.314l7.632-38.054"/><path d="m70.412 10.123h14.204c4.169 0.035 7.19 1.237 9.063 
3.604s2.491 5.6 1.855 9.699c-0.247 1.873-0.795 3.71-1.643 5.512-0.813 1.802-1.943 
3.427-3.392 4.876-1.767 1.837-3.657 3.003-5.671 3.498s-4.099 0.742-6.254 0.742h-6.36l-2.014 
10.07h-7.367l7.579-38.001m6.201 6.042-3.18 15.9c0.212 0.035 0.424 0.053 0.636 
0.053h0.742c3.392 0.035 6.219-0.3 8.48-1.007 2.261-0.742 3.781-3.321 4.558-7.738 0.636-3.71 
0-5.848-1.908-6.413-1.873-0.565-4.222-0.83-7.049-0.795-0.424 0.035-0.83 0.053-1.219 
0.053h-1.113l0.053-0.053"/></g></g></svg>
